<?xml version="1.0" standalone="no"?>
<!DOCTYPE svg PUBLIC "-//W3C//DTD SVG 20010904//EN"
 "http://www.w3.org/TR/2001/REC-SVG-20010904/DTD/svg10.dtd">
<svg version="1.0" xmlns="http://www.w3.org/2000/svg"
 width="48.000000pt" height="48.000000pt" viewBox="0 0 48.000000 48.000000"
 preserveAspectRatio="xMidYMid meet">

<g transform="translate(0.000000,48.000000) scale(0.100000,-0.100000)"
fill="#000000" stroke="none">
<path d="M226 400 c39 -40 73 -48 60 -14 -10 26 24 14 64 -23 28 -24 45 -50
53 -80 6 -25 17 -43 25 -43 21 0 6 67 -25 113 -37 53 -83 78 -156 84 l-62 5
41 -42z"/>
<path d="M252 243 c3 -65 4 -66 31 -70 42 -6 57 12 57 66 0 56 -12 71 -57 71
l-34 0 3 -67z m58 13 c0 -13 3 -31 6 -40 4 -12 0 -16 -15 -16 -18 0 -21 6 -21
40 0 29 4 40 15 40 9 0 15 -9 15 -24z"/>
<path d="M140 285 c0 -10 11 -15 35 -15 44 0 46 -18 3 -22 -29 -3 -33 -7 -36
-36 l-3 -33 47 3 c28 2 49 8 52 16 3 9 -3 13 -14 12 -34 -4 -54 0 -54 10 0 6
13 10 29 10 35 0 45 12 37 46 -6 21 -12 24 -51 24 -33 0 -45 -4 -45 -15z"/>
<path d="M45 203 c17 -92 87 -152 187 -160 l63 -5 -41 42 c-39 40 -73 48 -60
14 10 -26 -24 -14 -64 23 -28 24 -45 50 -53 80 -15 56 -43 61 -32 6z"/>
</g>
</svg>
